<mxfile modified="2023-03-13T10:56:58.293Z" host="app.diagrams.net" agent="5.0 (X11; Linux x86_64) AppleWebKit/537.36 (KHTML, like Gecko) Chrome/110.0.0.0 Safari/537.36" etag="a2ZPnih7OfvVWmMG81SN" version="21.0.6" type="github">
  <diagram id="Ht1M8jgEwFfnCIfOTk4-" name="Page-1">
    <mxGraphModel dx="1687" dy="115" grid="1" gridSize="10" guides="1" tooltips="1" connect="1" arrows="1" fold="1" page="1" pageScale="1" pageWidth="1169" pageHeight="827" math="0" shadow="0">
      <root>
        <mxCell id="0" />
        <mxCell id="1" parent="0" />
        <mxCell id="mJ8GjuPjmgihEE6Xo0Pr-2" value="" style="rounded=1;whiteSpace=wrap;html=1;strokeWidth=3;fontSize=30;fillColor=none;strokeColor=#FF5314;" parent="1" vertex="1">
          <mxGeometry x="75" y="860" width="1020" height="760" as="geometry" />
        </mxCell>
        <mxCell id="U6mfjkMRnxooP9xAoPuW-3" value="" style="shape=image;verticalLabelPosition=bottom;labelBackgroundColor=default;verticalAlign=top;aspect=fixed;imageAspect=0;image=data:image/png,iVBORw0KGgoAAAANSUhEUgAAAFgAAABXCAIAAAAPoRW2AAAACXBIWXMAAA7EAAAOxAGVKw4bAAAHmklEQVR4nO2caWwbxxXH38zsweUhUtFJ3ZJv64gtx0eTyInh1rXsGlYSBEXRwEWSpmkRFA2KtJ8d9EuBoEULFEnQBukF9AiaAk5Tt42tKE3qxDnkSHKglI5jU7RIWzdFUbvUXtMP3FIkJVMUJVJLYP+fuLtPc/xm5r23w6EQpRQsAeCNboBZZIEwZIEwxCRf/Oz9kxvVjg3R0/vPJD5bM8KQBcKQBcKQBcKQBcKQBcKQBcKQBcKQBcKQBcKQBcKQBcKQBcKQBcKQBcKQBcKQBcKQBcKQBcKQBcKQBcKQBcKQBcKQBcKQBcKQ2UHUudrua3yCIGZl07Up7xWsUQ7ujt3VX9lUun/g1utD4/9Q9YU8VWT2GRFXCV9xsPHRR9p/jvM2NYoDRFx21sNgLk+FFxOIvMoCYcgCYcgCYSh3EASxe6p77qk/RRCbjX19SXtXw6N21pONMYP5jspuJ1uWlTHi7vI+2OzZC4CysV++kBz+BgGqdm69p/5UrasVIdRa8cU3/S+MhC8ptwnyJVzlndXHd1efwIjcWXXs3/5fXZ25KKmR5RuEbQ0lHYebv+Pg7jjY+NjN6JVMrcdcrav1cPNTJXwFpfrwZN+Hob+EY6FcOpV8zjKbM1QOtvTo5u97nduTI5lO1RkpdPbqc1NSIKV0IHu8J++qedDGuBI3KdUj8kTvtecDkYG0wkttNd2bnym3N2FEllYta9JLHz8ma2L80sVVHN/ywwp7C8GLw7mgicMTvRcCv1OpvGJfks9QrQIEi217ax5qq/yynXUva6BTzTf1dp//l7ImIkBby7o6vSerHJtvV6A/fOmdwG+mpBEA8PDeTm9PW+WXlkUQVwKEnfXsq/1qe8WRZATJmomFPgr9dXiil4KeoUc5HiZz27yd3p5kCpRSShdrwojsKD9UZ++MiQpShIMNj2egAABNns776r8ZE5WYqBzd9ExH1dFkCkuPBFNKFyQ1JiodZSd2VR1LppBmXGqrub/xCRdfkX3vVuEj0hyRJM/1+l6OKdFD275R5qhL3NdkTRY1htMgi7PNlIIsagBAIMXjTkZvvHft1Z3ee1vK9yC0WLMsarKqgZbSlvG5kf9c/aPXvWVv4wmGLC5YTV7F6epVgEgulVL9pQvfnRFvAsCVsYtPdr1Y5qz9/8PcXXdcV8c//HP/s5quDNz455Gd397f3JPB+Fbk85cvPK3q8iehvrHItZ5dPwAAWYtdn/x4anqcceqEwSiLFuX4DqPpWpwCAOhUi6lziUdrP+U+MR/QdAUAKNCbkc8yG8eUqKobfnF8zg8Ak9HAmcGfhMI+ClSZQ04PB1mQWBWIAp3j57Bt8TOxZbAEAJbwGBGdagAQlm6dGXjucugtnarxp1SnUlQRXCxaiUU+Msu18tpVf+Tglq9zjLCzuuvwtsczG9d6tj+y/8duoRIAYkp0MHg+QSEuVdZlSVux0hyXRlpYWm41ZIUjsY5okj3B7P1bT+1rOmnnlo/TNLXwprKOJ7teGL75zpu+X4vy7FL7BUllOEyYTKOew4yg0dh0n++3iWudah+NvDYVHY2H0ngbJTnaH/h7RJrMUM5kNPDWld/HL/pHXp+VJpIfp1GIKdFPgn2yKgLAwI03gmFfsjOysc7Ohu5v3ft8e80hlvBLqgIxouh6prEhp0+fTlxcDP4pg6md9bRVHhm48cYr/T/yT6UkhWNz1weD56MLM01l7b6x9ybmRgCof2pwKNjLMUK1e3PaEpVV6ezlX/zr0xen54PxO6HZK0Oj5wGgzrMdobThodcnB1/pf3YweC5+Lcqzl4O9o+HhlvI9HLPoRHjWvq36C/ML4dCsbykLXQeWT8nWDtR9LfF5dZklr5aFpj/PYFNq98aUqKTMJd+sL229e9PDWyr3YURUXbkUOPuB/0wCQZrqPDsOtDy0vepujAmldDT86cXrr/731rvJmVtCDs6zu6H7QPMDds5NKR2ZHvrA/5pvbHljAODtDCeQxKjkmGIDAKUwH17QtVzc4Q5vV2f9sb8N/TQSm1jRuKW883jb94ZC597+7A+361VCHCN0tz7lnxoaHD23om9yeLiEs8gdBABoqj4/KxcgkiLAmd8UciwWg8PNYYJhjT9cIQx2lHBrzh5XVj4oAADVITavLg1zueQRmEE2u9m/EMkgVdZjopJ2M6eNGYQ4gaEUFkR1ZWtTSpE0JjWtyD2z5ARC2CLe8pSiKZMi954ghOwlLFO8LFLdxJq6gRCyOdn09Kc4tdZOYIIcbj6bF36Tax1GE2Fkc7IFCKh51XqAQMDyxOYo4oAK67gfwfKEs912A9r8WjcQccfJcMXqOde53YKTRaQovcU6g0AYOdwcLkIW6z+TMUaCK6uvhU2lvCxpwmChpMhY5Mu3sRzhhGIKInl08vF9sfyVv77KIwiEEC8wxRJQ89tKhJHgYosiiOR9uBBCgotF2OwsCjFvCYPtLrO/lRVoAWPG7MlFgUAghFiO8Cbe8i2oS+ftDMObNKAWOrYJTsac25yFbhNCyOZkTBhQN2BwMMGC+YLIxszSeEA11Zbvhi1XhiO8w0QBdSP9Fstj8wRUZP3P27jMGMk2RBYIQ/8DuYektZi+j7MAAAAASUVORK5CYII=;" parent="1" vertex="1">
          <mxGeometry x="592" y="1000" width="88" height="87" as="geometry" />
        </mxCell>
        <mxCell id="mJ8GjuPjmgihEE6Xo0Pr-3" value="" style="rounded=0;whiteSpace=wrap;html=1;dashed=1;strokeWidth=5;fillColor=none;" parent="1" vertex="1">
          <mxGeometry x="419" y="1163" width="443" height="399" as="geometry" />
        </mxCell>
        <mxCell id="mJ8GjuPjmgihEE6Xo0Pr-4" value="" style="rounded=0;whiteSpace=wrap;html=1;dashed=1;strokeWidth=5;fillColor=none;" parent="1" vertex="1">
          <mxGeometry x="419" y="963" width="443" height="166" as="geometry" />
        </mxCell>
        <mxCell id="mJ8GjuPjmgihEE6Xo0Pr-5" value="&lt;div&gt;Client&lt;/div&gt;&lt;div&gt;&lt;br&gt;&lt;/div&gt;" style="outlineConnect=0;gradientColor=none;fontColor=#545B64;strokeColor=none;fillColor=#879196;dashed=0;verticalLabelPosition=bottom;verticalAlign=top;align=center;html=1;fontSize=12;fontStyle=0;aspect=fixed;shape=mxgraph.aws4.illustration_desktop;pointerEvents=1;labelBackgroundColor=#ffffff;" parent="1" vertex="1">
          <mxGeometry x="195" y="1002" width="100" height="91" as="geometry" />
        </mxCell>
        <mxCell id="mJ8GjuPjmgihEE6Xo0Pr-9" value="" style="endArrow=classic;startArrow=classic;html=1;rounded=1;entryX=-0.01;entryY=0.504;entryDx=0;entryDy=0;entryPerimeter=0;jumpSize=60;strokeColor=default;sketch=0;strokeWidth=4;" parent="1" target="mJ8GjuPjmgihEE6Xo0Pr-4" edge="1">
          <mxGeometry width="50" height="50" relative="1" as="geometry">
            <mxPoint x="302" y="1047" as="sourcePoint" />
            <mxPoint x="362" y="1012" as="targetPoint" />
          </mxGeometry>
        </mxCell>
        <mxCell id="mJ8GjuPjmgihEE6Xo0Pr-10" value="https" style="edgeLabel;html=1;align=center;verticalAlign=middle;resizable=0;points=[];fontSize=30;" parent="mJ8GjuPjmgihEE6Xo0Pr-9" vertex="1" connectable="0">
          <mxGeometry x="-0.1285" y="-2" relative="1" as="geometry">
            <mxPoint x="7" y="-1" as="offset" />
          </mxGeometry>
        </mxCell>
        <mxCell id="mJ8GjuPjmgihEE6Xo0Pr-11" value="&lt;font color=&quot;#FF642B&quot;&gt;Draw.io&lt;/font&gt;" style="text;html=1;align=center;verticalAlign=middle;resizable=0;points=[];autosize=1;strokeColor=none;fillColor=none;fontSize=30;" parent="1" vertex="1">
          <mxGeometry x="195" y="913" width="120" height="50" as="geometry" />
        </mxCell>
        <mxCell id="mJ8GjuPjmgihEE6Xo0Pr-13" value="" style="edgeStyle=orthogonalEdgeStyle;rounded=0;orthogonalLoop=1;jettySize=auto;html=1;strokeWidth=6;fontSize=30;fontColor=#FF6E42;exitX=1;exitY=0.5;exitDx=0;exitDy=0;exitPerimeter=0;" parent="1" source="mJ8GjuPjmgihEE6Xo0Pr-15" edge="1">
          <mxGeometry relative="1" as="geometry">
            <mxPoint x="682.3000000000002" y="1288" as="targetPoint" />
          </mxGeometry>
        </mxCell>
        <mxCell id="mJ8GjuPjmgihEE6Xo0Pr-14" style="edgeStyle=orthogonalEdgeStyle;rounded=0;orthogonalLoop=1;jettySize=auto;html=1;strokeWidth=6;fontSize=30;fontColor=#FF6E42;" parent="1" source="mJ8GjuPjmgihEE6Xo0Pr-15" target="mJ8GjuPjmgihEE6Xo0Pr-16" edge="1">
          <mxGeometry relative="1" as="geometry" />
        </mxCell>
        <mxCell id="mJ8GjuPjmgihEE6Xo0Pr-15" value="" style="outlineConnect=0;dashed=0;verticalLabelPosition=bottom;verticalAlign=top;align=center;html=1;shape=mxgraph.aws3.android;fillColor=#205E00;gradientColor=none;" parent="1" vertex="1">
          <mxGeometry x="617" y="1326" width="38.5" height="44" as="geometry" />
        </mxCell>
        <mxCell id="mJ8GjuPjmgihEE6Xo0Pr-12" value="" style="shape=image;html=1;verticalAlign=top;verticalLabelPosition=bottom;labelBackgroundColor=#ffffff;imageAspect=0;aspect=fixed;image=https://cdn1.iconfinder.com/data/icons/unicons-line-vol-5/24/react-128.png" parent="1" vertex="1">
          <mxGeometry x="662" y="1054" width="40" height="40" as="geometry" />
        </mxCell>
        <mxCell id="mJ8GjuPjmgihEE6Xo0Pr-16" value="" style="shape=image;html=1;verticalAlign=top;verticalLabelPosition=bottom;labelBackgroundColor=#ffffff;imageAspect=0;aspect=fixed;image=https://cdn1.iconfinder.com/data/icons/bootstrap-vol-3/16/filetype-js-128.png" parent="1" vertex="1">
          <mxGeometry x="565" y="1242" width="46" height="46" as="geometry" />
        </mxCell>
        <mxCell id="mJ8GjuPjmgihEE6Xo0Pr-18" style="edgeStyle=orthogonalEdgeStyle;rounded=0;orthogonalLoop=1;jettySize=auto;html=1;exitX=0.5;exitY=0;exitDx=0;exitDy=0;entryX=0.5;entryY=1;entryDx=0;entryDy=0;entryPerimeter=0;fontSize=30;fontColor=#FF6E42;strokeWidth=6;" parent="1" source="mJ8GjuPjmgihEE6Xo0Pr-19" target="mJ8GjuPjmgihEE6Xo0Pr-15" edge="1">
          <mxGeometry relative="1" as="geometry" />
        </mxCell>
        <mxCell id="mJ8GjuPjmgihEE6Xo0Pr-19" value="" style="shape=image;html=1;verticalAlign=top;verticalLabelPosition=bottom;labelBackgroundColor=#ffffff;imageAspect=0;aspect=fixed;image=https://cdn1.iconfinder.com/data/icons/bootstrap-vol-3/16/filetype-jsx-128.png" parent="1" vertex="1">
          <mxGeometry x="613.25" y="1454" width="46" height="46" as="geometry" />
        </mxCell>
        <mxCell id="mJ8GjuPjmgihEE6Xo0Pr-20" value="&lt;div style=&quot;font-size: 30px;&quot;&gt;&lt;font style=&quot;font-size: 30px;&quot; color=&quot;#FF6E42&quot;&gt;Babel transpiles the &lt;br&gt;&lt;/font&gt;&lt;/div&gt;&lt;div style=&quot;font-size: 30px;&quot;&gt;&lt;font style=&quot;font-size: 30px;&quot; color=&quot;#FF6E42&quot;&gt;.jsx into .js and &lt;br&gt;&lt;/font&gt;&lt;/div&gt;&lt;div style=&quot;font-size: 30px;&quot;&gt;&lt;font style=&quot;font-size: 30px;&quot; color=&quot;#FF6E42&quot;&gt;Webpack then &lt;br&gt;&lt;/font&gt;&lt;/div&gt;&lt;div style=&quot;font-size: 30px;&quot;&gt;&lt;font style=&quot;font-size: 30px;&quot; color=&quot;#FF6E42&quot;&gt;bundles all &lt;br&gt;&lt;/font&gt;&lt;/div&gt;&lt;div style=&quot;font-size: 30px;&quot;&gt;&lt;font style=&quot;font-size: 30px;&quot; color=&quot;#FF6E42&quot;&gt;of the .js files and &lt;br&gt;&lt;/font&gt;&lt;/div&gt;&lt;div style=&quot;font-size: 30px;&quot;&gt;&lt;font style=&quot;font-size: 30px;&quot; color=&quot;#FF6E42&quot;&gt;the index.css&lt;br&gt;&lt;/font&gt;&lt;/div&gt;&lt;div style=&quot;font-size: 30px;&quot;&gt;&lt;font style=&quot;font-size: 30px;&quot; color=&quot;#FF6E42&quot;&gt;into two files&lt;/font&gt;&lt;/div&gt;" style="text;html=1;align=center;verticalAlign=middle;resizable=0;points=[];autosize=1;strokeColor=none;fillColor=none;fontColor=#FF6E42;labelBackgroundColor=default;" parent="1" vertex="1">
          <mxGeometry x="742" y="1288" width="290" height="270" as="geometry" />
        </mxCell>
        <mxCell id="mJ8GjuPjmgihEE6Xo0Pr-21" value="&lt;div&gt;&lt;font style=&quot;font-size: 30px;&quot;&gt;The front end is &lt;br&gt;&lt;/font&gt;&lt;/div&gt;&lt;div&gt;&lt;font style=&quot;font-size: 30px;&quot;&gt;integrated into an &lt;br&gt;&lt;/font&gt;&lt;/div&gt;&lt;div&gt;&lt;font style=&quot;font-size: 30px;&quot;&gt;Expressjs app. This makes&lt;/font&gt;&lt;/div&gt;&lt;div&gt;&lt;font style=&quot;font-size: 30px;&quot;&gt;it easier to deploy and &lt;br&gt;&lt;/font&gt;&lt;/div&gt;&lt;div&gt;&lt;font style=&quot;font-size: 30px;&quot;&gt;maintain. Apache then&lt;/font&gt;&lt;/div&gt;&lt;div&gt;&lt;font style=&quot;font-size: 30px;&quot;&gt;proxies/ reverse proxies the&lt;/font&gt;&lt;/div&gt;&lt;div&gt;&lt;span style=&quot;font-size: 30px;&quot;&gt;pm2 app&lt;/span&gt;&lt;/div&gt;&lt;div&gt;&lt;font style=&quot;font-size: 30px;&quot;&gt;&lt;br&gt;&lt;/font&gt;&lt;/div&gt;" style="text;html=1;align=center;verticalAlign=middle;resizable=0;points=[];autosize=1;strokeColor=none;fillColor=none;fontColor=#FF6E42;labelBackgroundColor=default;" parent="1" vertex="1">
          <mxGeometry x="160" y="1147" width="390" height="300" as="geometry" />
        </mxCell>
        <mxCell id="mJ8GjuPjmgihEE6Xo0Pr-27" value="" style="shape=image;html=1;verticalAlign=top;verticalLabelPosition=bottom;labelBackgroundColor=#ffffff;imageAspect=0;aspect=fixed;image=https://cdn1.iconfinder.com/data/icons/bootstrap-vol-3/16/filetype-jsx-128.png" parent="1" vertex="1">
          <mxGeometry x="667.76" y="1454" width="46" height="46" as="geometry" />
        </mxCell>
        <mxCell id="mJ8GjuPjmgihEE6Xo0Pr-28" value="" style="shape=image;html=1;verticalAlign=top;verticalLabelPosition=bottom;labelBackgroundColor=#ffffff;imageAspect=0;aspect=fixed;image=https://cdn1.iconfinder.com/data/icons/bootstrap-vol-3/16/filetype-jsx-128.png" parent="1" vertex="1">
          <mxGeometry x="552" y="1454" width="46" height="46" as="geometry" />
        </mxCell>
        <mxCell id="mJ8GjuPjmgihEE6Xo0Pr-30" value="" style="shape=image;html=1;verticalAlign=top;verticalLabelPosition=bottom;labelBackgroundColor=#ffffff;imageAspect=0;aspect=fixed;image=https://cdn1.iconfinder.com/data/icons/bootstrap-vol-3/16/filetype-scss-128.png" parent="1" vertex="1">
          <mxGeometry x="494" y="1454" width="46" height="46" as="geometry" />
        </mxCell>
        <mxCell id="mJ8GjuPjmgihEE6Xo0Pr-31" value="" style="shape=image;html=1;verticalAlign=top;verticalLabelPosition=bottom;labelBackgroundColor=#ffffff;imageAspect=0;aspect=fixed;image=https://cdn1.iconfinder.com/data/icons/bootstrap-vol-3/16/filetype-scss-128.png" parent="1" vertex="1">
          <mxGeometry x="717.2" y="1454" width="46" height="46" as="geometry" />
        </mxCell>
        <mxCell id="U6mfjkMRnxooP9xAoPuW-2" value="" style="shape=image;html=1;verticalAlign=top;verticalLabelPosition=bottom;labelBackgroundColor=#ffffff;imageAspect=0;aspect=fixed;image=https://cdn1.iconfinder.com/data/icons/bootstrap-vol-3/16/filetype-css-128.png" parent="1" vertex="1">
          <mxGeometry x="661.25" y="1240" width="44" height="44" as="geometry" />
        </mxCell>
        <mxCell id="U6mfjkMRnxooP9xAoPuW-8" value="" style="dashed=0;outlineConnect=0;html=1;align=center;labelPosition=center;verticalLabelPosition=bottom;verticalAlign=top;shape=mxgraph.webicons.apache;gradientColor=#DFDEDE" parent="1" vertex="1">
          <mxGeometry x="472" y="1003.5" width="80" height="80" as="geometry" />
        </mxCell>
        <mxCell id="JUnkcvWwJDRz5hunavrS-1" value="&lt;div style=&quot;font-size: 30px;&quot;&gt;pm2 spawns the node express app&lt;/div&gt;&lt;div style=&quot;font-size: 30px;&quot;&gt;and serves it on localhost:1313&lt;/div&gt;" style="text;html=1;align=center;verticalAlign=middle;resizable=0;points=[];autosize=1;strokeColor=none;fillColor=none;fontColor=#FF6E42;labelBackgroundColor=default;" parent="1" vertex="1">
          <mxGeometry x="598" y="1094" width="490" height="90" as="geometry" />
        </mxCell>
        <mxCell id="xHvF2r1lIpU9JqNbBKkI-2" value="" style="shape=image;verticalLabelPosition=bottom;labelBackgroundColor=default;verticalAlign=top;aspect=fixed;imageAspect=0;image=https://www.pngall.com/wp-content/uploads/13/Mongodb-Transparent.png;" vertex="1" parent="1">
          <mxGeometry x="717" y="987.5" width="102.4" height="120" as="geometry" />
        </mxCell>
      </root>
    </mxGraphModel>
  </diagram>
</mxfile>
